<svg xmlns="http://www.w3.org/2000/svg" version="1.1" xmlns:xlink="http://www.w3.org/1999/xlink" viewBox="0 0 200 200"><rect width="200" height="200" fill="url('#gradient')"></rect><defs><linearGradient id="gradient" gradientTransform="rotate(360 0.5 0.5)"><stop offset="0%" stop-color="#328c78"></stop><stop offset="100%" stop-color="#28819e"></stop></linearGradient></defs><g><g fill="#f6ebbc" transform="matrix(3.783493282149712,0,0,3.783493282149712,18.049383665183683,120.29965175914215)" stroke="#dba545" stroke-width="0.6"><path d="M4.73-14.22L4.73 0L1.31 0L1.31-14.22L4.73-14.22ZM10.43-15L10.43 0L7.13 0L7.13-15L10.43-15ZM15.01-10.57L16.68-4.61L18.44-10.57L21.96-10.57L17.66 1.77L17.47 2.22Q16.55 4.27 14.23 4.27L14.23 4.27Q13.58 4.27 12.87 4.07L12.87 4.07L12.87 1.72L13.30 1.72Q13.99 1.72 14.36 1.52Q14.73 1.32 14.90 0.80L14.90 0.80L15.17 0.10L11.49-10.57L15.01-10.57ZM31.91 0L28.62 0Q28.45-0.32 28.31-0.95L28.31-0.95Q27.40 0.20 25.77 0.20L25.77 0.20Q24.28 0.20 23.23-0.71Q22.19-1.61 22.19-2.98L22.19-2.98Q22.19-4.70 23.46-5.58Q24.73-6.46 27.15-6.46L27.15-6.46L28.16-6.46L28.16-7.01Q28.16-8.47 26.90-8.47L26.90-8.47Q25.73-8.47 25.73-7.31L25.73-7.31L22.44-7.31Q22.44-8.85 23.75-9.80Q25.05-10.76 27.07-10.76Q29.09-10.76 30.26-9.78Q31.44-8.79 31.46-7.07L31.46-7.07L31.46-2.39Q31.48-0.94 31.91-0.17L31.91-0.17L31.91 0ZM26.56-2.15L26.56-2.15Q27.18-2.15 27.58-2.41Q27.99-2.68 28.16-3.01L28.16-3.01L28.16-4.70L27.21-4.70Q25.49-4.70 25.49-3.15L25.49-3.15Q25.49-2.71 25.79-2.43Q26.09-2.15 26.56-2.15ZM38.82-2.97L38.82-2.97Q38.82-3.39 38.38-3.64Q37.94-3.90 36.71-4.17Q35.48-4.44 34.68-4.89Q33.88-5.33 33.46-5.97Q33.04-6.60 33.04-7.42L33.04-7.42Q33.04-8.88 34.24-9.82Q35.44-10.76 37.38-10.76L37.38-10.76Q39.47-10.76 40.74-9.81Q42.01-8.87 42.01-7.32L42.01-7.32L38.71-7.32Q38.71-8.59 37.37-8.59L37.37-8.59Q36.86-8.59 36.50-8.31Q36.15-8.02 36.15-7.59L36.15-7.59Q36.15-7.15 36.58-6.88Q37.01-6.60 37.95-6.43Q38.90-6.25 39.61-6.01L39.61-6.01Q41.99-5.19 41.99-3.07L41.99-3.07Q41.99-1.62 40.71-0.71Q39.42 0.20 37.38 0.20L37.38 0.20Q36.03 0.20 34.96-0.29Q33.90-0.78 33.30-1.62Q32.71-2.46 32.71-3.39L32.71-3.39L35.78-3.39Q35.80-2.66 36.27-2.32Q36.74-1.98 37.47-1.98L37.47-1.98Q38.14-1.98 38.48-2.26Q38.82-2.53 38.82-2.97Z"></path></g></g></svg>